<?xml version="1.0" encoding="UTF-8"?>
<svg id="Layer_1" data-name="Layer 1" xmlns="http://www.w3.org/2000/svg" viewBox="0 0 544.22 544.22">
  <path style="fill: #ec5f3e;" d="m272.11,0C2.1,0,0,121.83,0,272.11s2.1,272.11,272.11,272.11,272.11-121.83,272.11-272.11S542.12,0,272.11,0Zm72.18,412.37c-1.09.1-2.2.1-3.29.1-59.91,0-119.81.02-179.72,0-14.97,0-26.11-8.7-29.12-22.6-.56-2.6-.5-5.24-.5-7.88-.01-29.45,0-58.91,0-88.36,0-30.44-.02-60.89.02-91.33.01-8.94,6.44-15.31,14.81-14.88,6.9.36,12.66,6,13.13,12.88.1,1.42.08,2.86.08,4.28,0,54.29,0,108.59,0,162.88,0,11.6,5.35,16.99,16.86,16.99,54.85,0,109.7,0,164.55,0,8.26,0,13.68,3.95,15.35,11.12,1.83,7.87-4.09,16.07-12.15,16.8Zm37.69-55.4c-54.84-.38-109.69-.14-164.54-.14-18.2,0-30.12-11.9-30.12-30.07,0-23.95,0-47.91,0-71.86,20.64,0,42.1-.08,62.73.05,5.25.03,8.97-1.86,11.79-6.28,4.76-7.48,9.78-14.79,15.07-22.73,7.08,21.18,14.01,41.74,20.8,62.34,1.59,4.84,4.37,8.14,9.56,8.73,4.96.57,8.21-2.1,10.82-6.07,7.41-11.28,15-22.44,22.38-33.74,1.18-1.81,2.42-2.4,4.51-2.35,6.26.14,12.53.08,18.8.04,6.68-.04,11.33-4.46,11.29-10.65-.05-6.04-4.67-10.41-11.16-10.44-8.8-.04-17.59.06-26.39-.04-4.61-.05-7.97,1.83-10.47,5.63-4.99,7.61-10.06,15.16-15.14,22.79-1.33-.77-1.25-2.11-1.61-3.16-6.61-19.62-13.21-39.25-19.7-58.91-1.52-4.6-4.28-7.72-9.13-8.36-4.89-.65-8.31,1.78-10.95,5.79-7.48,11.37-15.11,22.64-22.59,34-1.09,1.65-2.2,2.31-4.22,2.3-18.8-.08-37.59-.04-56.39-.05,0-24.29,0-48.58,0-72.87,0-14.5,8.99-25.82,22.77-28.65,2.24-.46,4.59-.5,6.88-.5,55.29-.03,110.57-.03,165.86-.01,14.99,0,26.09,8.7,29.08,22.63.56,2.6.49,5.24.5,7.88.01,27.26,0,54.51,0,81.77,0,27.48-.38,54.96.14,82.42.33,17.6-13.16,30.64-30.58,30.51Z"/>
</svg>